<svg xmlns="http://www.w3.org/2000/svg" xmlns:xlink="http://www.w3.org/1999/xlink" width="576" zoomAndPan="magnify" viewBox="0 0 432 212.249992" height="283" preserveAspectRatio="xMidYMid meet" version="1.2"><defs><clipPath id="d9ec60ad76"><path d="M 0.761719 95 L 165 95 L 165 130 L 0.761719 130 Z M 0.761719 95 "/></clipPath><clipPath id="c7c81dd75d"><path d="M 0.761719 114 L 122 114 L 122 211.503906 L 0.761719 211.503906 Z M 0.761719 114 "/></clipPath><clipPath id="45dc6631f8"><path d="M 0.761719 114 L 153 114 L 153 183 L 0.761719 183 Z M 0.761719 114 "/></clipPath><clipPath id="b841bebb80"><path d="M 0.761719 95 L 165 95 L 165 130 L 0.761719 130 Z M 0.761719 95 "/></clipPath><clipPath id="fb7bcf8ca8"><path d="M 0.761719 114 L 122 114 L 122 211.503906 L 0.761719 211.503906 Z M 0.761719 114 "/></clipPath><clipPath id="53e0a184cf"><path d="M 0.761719 114 L 153 114 L 153 183 L 0.761719 183 Z M 0.761719 114 "/></clipPath></defs><g id="fc2d809630"><g clip-rule="nonzero" clip-path="url(#d9ec60ad76)"><path style=" stroke:none;fill-rule:nonzero;fill:#000000;fill-opacity:1;" d="M 144.238281 129.902344 C 144.183594 129.902344 144.128906 129.898438 144.074219 129.894531 L 2.941406 119.183594 C 1.851562 119.097656 1.003906 118.207031 0.976562 117.113281 C 0.953125 116.019531 1.753906 115.085938 2.839844 114.953125 L 161.929688 95.101562 C 162.734375 95.003906 163.523438 95.367188 163.96875 96.042969 C 164.414062 96.71875 164.4375 97.589844 164.027344 98.289062 L 146.070312 128.851562 C 145.683594 129.503906 144.984375 129.902344 144.238281 129.902344 Z M 24.410156 116.546875 L 143.074219 125.550781 L 158.171875 99.855469 Z M 24.410156 116.546875 "/></g><g clip-rule="nonzero" clip-path="url(#c7c81dd75d)"><path style=" stroke:none;fill-rule:nonzero;fill:#000000;fill-opacity:1;" d="M 103.597656 211.507812 C 103.070312 211.507812 102.554688 211.3125 102.15625 210.949219 L 1.664062 118.628906 C 0.945312 117.96875 0.769531 116.902344 1.234375 116.046875 C 1.699219 115.191406 2.6875 114.757812 3.632812 115.003906 L 120.191406 144.933594 C 120.738281 145.074219 121.207031 145.425781 121.496094 145.914062 C 121.78125 146.398438 121.863281 146.980469 121.722656 147.523438 L 105.65625 209.910156 C 105.46875 210.636719 104.917969 211.207031 104.203125 211.417969 C 104 211.476562 103.796875 211.507812 103.597656 211.507812 Z M 10.785156 121.230469 L 102.421875 205.414062 L 117.074219 148.527344 Z M 10.785156 121.230469 "/></g><path style=" stroke:none;fill-rule:nonzero;fill:#000000;fill-opacity:1;" d="M 150.222656 182.519531 C 150.089844 182.519531 149.953125 182.507812 149.820312 182.480469 L 112.515625 175.28125 C 111.9375 175.167969 111.433594 174.824219 111.117188 174.328125 C 110.804688 173.832031 110.710938 173.230469 110.855469 172.660156 L 117.605469 146.460938 C 117.800781 145.707031 118.390625 145.117188 119.148438 144.929688 C 119.90625 144.738281 120.707031 144.980469 121.234375 145.554688 L 151.789062 178.953125 C 152.410156 179.632812 152.523438 180.628906 152.078125 181.429688 C 151.695312 182.113281 150.980469 182.519531 150.222656 182.519531 Z M 115.539062 171.53125 L 144.316406 177.085938 L 120.746094 151.324219 Z M 115.539062 171.53125 "/><g clip-rule="nonzero" clip-path="url(#45dc6631f8)"><path style=" stroke:none;fill-rule:nonzero;fill:#000000;fill-opacity:1;" d="M 150.222656 182.519531 C 149.636719 182.519531 149.066406 182.277344 148.652344 181.828125 L 118.523438 148.898438 L 2.574219 119.121094 C 1.507812 118.847656 0.828125 117.800781 1.003906 116.714844 C 1.183594 115.628906 2.15625 114.851562 3.265625 114.941406 L 144.398438 125.652344 C 145.414062 125.730469 146.234375 126.519531 146.347656 127.53125 L 152.335938 180.152344 C 152.4375 181.070312 151.941406 181.945312 151.101562 182.328125 C 150.820312 182.457031 150.519531 182.519531 150.222656 182.519531 Z M 27.035156 121.011719 L 120.195312 144.933594 C 120.59375 145.035156 120.957031 145.253906 121.234375 145.558594 L 147.371094 174.125 L 142.324219 129.761719 Z M 27.035156 121.011719 "/></g><path style=" stroke:none;fill-rule:nonzero;fill:#000000;fill-opacity:1;" d="M 168.488281 185.039062 C 167.394531 185.039062 166.464844 184.199219 166.375 183.085938 C 166.277344 181.917969 167.148438 180.890625 168.320312 180.792969 C 168.386719 180.789062 175.109375 180.226562 186.199219 178.441406 C 187.359375 178.253906 188.449219 179.042969 188.636719 180.203125 C 188.824219 181.363281 188.035156 182.453125 186.875 182.640625 C 175.601562 184.453125 168.945312 185.011719 168.664062 185.03125 C 168.605469 185.039062 168.546875 185.039062 168.488281 185.039062 Z M 204.359375 179.386719 C 203.371094 179.386719 202.484375 178.695312 202.277344 177.691406 C 202.039062 176.539062 202.78125 175.414062 203.929688 175.179688 C 209.769531 173.972656 215.679688 172.621094 221.503906 171.164062 C 222.644531 170.878906 223.796875 171.570312 224.082031 172.710938 C 224.367188 173.847656 223.675781 175.003906 222.535156 175.289062 C 216.652344 176.761719 210.683594 178.125 204.792969 179.34375 C 204.644531 179.371094 204.5 179.386719 204.359375 179.386719 Z M 239.492188 170.59375 C 238.574219 170.59375 237.722656 169.996094 237.449219 169.070312 C 237.117188 167.941406 237.761719 166.757812 238.890625 166.425781 C 244.671875 164.722656 250.445312 162.882812 256.054688 160.960938 C 257.164062 160.582031 258.375 161.171875 258.753906 162.285156 C 259.136719 163.398438 258.542969 164.605469 257.433594 164.984375 C 251.765625 166.925781 245.933594 168.785156 240.09375 170.507812 C 239.890625 170.566406 239.6875 170.59375 239.492188 170.59375 Z M 273.730469 158.851562 C 272.882812 158.851562 272.082031 158.339844 271.75 157.503906 C 271.320312 156.410156 271.859375 155.175781 272.953125 154.742188 C 278.574219 152.527344 284.148438 150.171875 289.527344 147.742188 C 290.59375 147.261719 291.855469 147.734375 292.339844 148.804688 C 292.824219 149.875 292.347656 151.136719 291.277344 151.621094 C 285.835938 154.078125 280.195312 156.460938 274.511719 158.699219 C 274.253906 158.804688 273.992188 158.851562 273.730469 158.851562 Z M 306.691406 143.9375 C 305.921875 143.9375 305.179688 143.519531 304.800781 142.789062 C 304.261719 141.742188 304.671875 140.460938 305.714844 139.921875 C 311.082031 137.148438 316.375 134.226562 321.4375 131.234375 C 322.453125 130.632812 323.753906 130.972656 324.351562 131.980469 C 324.949219 132.992188 324.613281 134.296875 323.601562 134.894531 C 318.46875 137.925781 313.105469 140.890625 307.664062 143.699219 C 307.355469 143.863281 307.019531 143.9375 306.691406 143.9375 Z M 337.808594 125.523438 C 337.125 125.523438 336.453125 125.195312 336.042969 124.589844 C 335.386719 123.617188 335.640625 122.292969 336.613281 121.636719 C 341.609375 118.253906 346.492188 114.707031 351.125 111.09375 C 352.050781 110.371094 353.386719 110.539062 354.109375 111.464844 C 354.832031 112.394531 354.667969 113.730469 353.742188 114.453125 C 349.035156 118.121094 344.074219 121.722656 339 125.15625 C 338.632812 125.40625 338.21875 125.523438 337.808594 125.523438 Z M 366.28125 103.292969 C 365.699219 103.292969 365.121094 103.054688 364.699219 102.589844 C 363.914062 101.71875 363.984375 100.371094 364.855469 99.585938 C 369.316406 95.5625 373.628906 91.359375 377.675781 87.09375 C 378.484375 86.242188 379.828125 86.207031 380.683594 87.015625 C 381.535156 87.824219 381.570312 89.171875 380.761719 90.023438 C 376.640625 94.367188 372.246094 98.644531 367.707031 102.746094 C 367.296875 103.109375 366.789062 103.292969 366.28125 103.292969 Z M 391.105469 77.09375 C 390.636719 77.09375 390.164062 76.941406 389.773438 76.625 C 388.859375 75.890625 388.714844 74.550781 389.449219 73.632812 C 393.191406 68.980469 396.757812 64.144531 400.046875 59.246094 C 400.703125 58.273438 402.023438 58.015625 403 58.667969 C 403.972656 59.324219 404.234375 60.648438 403.578125 61.621094 C 400.21875 66.617188 396.578125 71.554688 392.761719 76.300781 C 392.34375 76.824219 391.726562 77.09375 391.105469 77.09375 Z M 411.214844 47.164062 C 410.867188 47.164062 410.515625 47.078125 410.191406 46.898438 C 409.160156 46.328125 408.789062 45.035156 409.355469 44.007812 C 412.21875 38.820312 414.886719 33.441406 417.285156 28.011719 C 417.761719 26.9375 419.015625 26.453125 420.089844 26.925781 C 421.164062 27.402344 421.648438 28.65625 421.171875 29.730469 C 418.722656 35.273438 416 40.765625 413.078125 46.0625 C 412.691406 46.765625 411.964844 47.164062 411.214844 47.164062 Z M 425.800781 14.195312 C 425.574219 14.195312 425.34375 14.160156 425.113281 14.082031 C 424.003906 13.699219 423.410156 12.492188 423.789062 11.378906 C 424.871094 8.226562 425.890625 4.996094 426.820312 1.777344 C 427.148438 0.652344 428.328125 0 429.453125 0.328125 C 430.582031 0.65625 431.230469 1.835938 430.90625 2.960938 C 429.953125 6.246094 428.914062 9.539062 427.8125 12.757812 C 427.511719 13.640625 426.6875 14.195312 425.800781 14.195312 Z M 425.800781 14.195312 "/><path style=" stroke:none;fill-rule:nonzero;fill:#000000;fill-opacity:1;" d="M 314.765625 174.914062 C 313.957031 174.914062 313.1875 174.457031 312.828125 173.671875 C 312.339844 172.605469 312.808594 171.34375 313.878906 170.855469 C 335.867188 160.785156 354.351562 149.84375 370.378906 137.394531 C 375.226562 133.632812 379.859375 129.703125 384.152344 125.722656 C 385.015625 124.921875 386.359375 124.972656 387.160156 125.835938 C 387.957031 126.695312 387.90625 128.042969 387.046875 128.839844 C 382.660156 132.90625 377.929688 136.914062 372.984375 140.757812 C 356.695312 153.40625 337.941406 164.515625 315.648438 174.722656 C 315.363281 174.855469 315.0625 174.914062 314.765625 174.914062 Z M 314.765625 174.914062 "/><g clip-rule="nonzero" clip-path="url(#b841bebb80)"><path style=" stroke:none;fill-rule:nonzero;fill:#000000;fill-opacity:1;" d="M 144.238281 129.902344 C 144.183594 129.902344 144.128906 129.898438 144.074219 129.894531 L 2.941406 119.183594 C 1.851562 119.097656 1.003906 118.207031 0.976562 117.113281 C 0.953125 116.019531 1.753906 115.085938 2.839844 114.953125 L 161.929688 95.101562 C 162.734375 95.003906 163.523438 95.367188 163.96875 96.042969 C 164.414062 96.71875 164.4375 97.589844 164.027344 98.289062 L 146.070312 128.851562 C 145.683594 129.503906 144.984375 129.902344 144.238281 129.902344 Z M 24.410156 116.546875 L 143.074219 125.550781 L 158.171875 99.855469 Z M 24.410156 116.546875 "/></g><g clip-rule="nonzero" clip-path="url(#fb7bcf8ca8)"><path style=" stroke:none;fill-rule:nonzero;fill:#000000;fill-opacity:1;" d="M 103.597656 211.507812 C 103.070312 211.507812 102.554688 211.3125 102.15625 210.949219 L 1.664062 118.628906 C 0.945312 117.96875 0.769531 116.902344 1.234375 116.046875 C 1.699219 115.191406 2.6875 114.757812 3.632812 115.003906 L 120.191406 144.933594 C 120.738281 145.074219 121.207031 145.425781 121.496094 145.914062 C 121.78125 146.398438 121.863281 146.980469 121.722656 147.523438 L 105.65625 209.910156 C 105.46875 210.636719 104.917969 211.207031 104.203125 211.417969 C 104 211.476562 103.796875 211.507812 103.597656 211.507812 Z M 10.785156 121.230469 L 102.421875 205.414062 L 117.074219 148.527344 Z M 10.785156 121.230469 "/></g><path style=" stroke:none;fill-rule:nonzero;fill:#000000;fill-opacity:1;" d="M 150.222656 182.519531 C 150.089844 182.519531 149.953125 182.507812 149.820312 182.480469 L 112.515625 175.28125 C 111.9375 175.167969 111.433594 174.824219 111.117188 174.328125 C 110.804688 173.832031 110.710938 173.230469 110.855469 172.660156 L 117.605469 146.460938 C 117.800781 145.707031 118.390625 145.117188 119.148438 144.929688 C 119.90625 144.738281 120.707031 144.980469 121.234375 145.554688 L 151.789062 178.953125 C 152.410156 179.632812 152.523438 180.628906 152.078125 181.429688 C 151.695312 182.113281 150.980469 182.519531 150.222656 182.519531 Z M 115.539062 171.53125 L 144.316406 177.085938 L 120.746094 151.324219 Z M 115.539062 171.53125 "/><g clip-rule="nonzero" clip-path="url(#53e0a184cf)"><path style=" stroke:none;fill-rule:nonzero;fill:#000000;fill-opacity:1;" d="M 150.222656 182.519531 C 149.636719 182.519531 149.066406 182.277344 148.652344 181.828125 L 118.523438 148.898438 L 2.574219 119.121094 C 1.507812 118.847656 0.828125 117.800781 1.003906 116.714844 C 1.183594 115.628906 2.15625 114.851562 3.265625 114.941406 L 144.398438 125.652344 C 145.414062 125.730469 146.234375 126.519531 146.347656 127.53125 L 152.335938 180.152344 C 152.4375 181.070312 151.941406 181.945312 151.101562 182.328125 C 150.820312 182.457031 150.519531 182.519531 150.222656 182.519531 Z M 27.035156 121.011719 L 120.195312 144.933594 C 120.59375 145.035156 120.957031 145.253906 121.234375 145.558594 L 147.371094 174.125 L 142.324219 129.761719 Z M 27.035156 121.011719 "/></g><path style=" stroke:none;fill-rule:nonzero;fill:#000000;fill-opacity:1;" d="M 168.488281 185.039062 C 167.394531 185.039062 166.464844 184.199219 166.375 183.085938 C 166.277344 181.917969 167.148438 180.890625 168.320312 180.792969 C 168.386719 180.789062 175.109375 180.226562 186.199219 178.441406 C 187.359375 178.253906 188.449219 179.042969 188.636719 180.203125 C 188.824219 181.363281 188.035156 182.453125 186.875 182.640625 C 175.601562 184.453125 168.945312 185.011719 168.664062 185.03125 C 168.605469 185.039062 168.546875 185.039062 168.488281 185.039062 Z M 204.359375 179.386719 C 203.371094 179.386719 202.484375 178.695312 202.277344 177.691406 C 202.039062 176.539062 202.78125 175.414062 203.929688 175.179688 C 209.769531 173.972656 215.679688 172.621094 221.503906 171.164062 C 222.644531 170.878906 223.796875 171.570312 224.082031 172.710938 C 224.367188 173.847656 223.675781 175.003906 222.535156 175.289062 C 216.652344 176.761719 210.683594 178.125 204.792969 179.34375 C 204.644531 179.371094 204.5 179.386719 204.359375 179.386719 Z M 239.492188 170.59375 C 238.574219 170.59375 237.722656 169.996094 237.449219 169.070312 C 237.117188 167.941406 237.761719 166.757812 238.890625 166.425781 C 244.671875 164.722656 250.445312 162.882812 256.054688 160.960938 C 257.164062 160.582031 258.375 161.171875 258.753906 162.285156 C 259.136719 163.398438 258.542969 164.605469 257.433594 164.984375 C 251.765625 166.925781 245.933594 168.785156 240.09375 170.507812 C 239.890625 170.566406 239.6875 170.59375 239.492188 170.59375 Z M 273.730469 158.851562 C 272.882812 158.851562 272.082031 158.339844 271.75 157.503906 C 271.320312 156.410156 271.859375 155.175781 272.953125 154.742188 C 278.574219 152.527344 284.148438 150.171875 289.527344 147.742188 C 290.59375 147.261719 291.855469 147.734375 292.339844 148.804688 C 292.824219 149.875 292.347656 151.136719 291.277344 151.621094 C 285.835938 154.078125 280.195312 156.460938 274.511719 158.699219 C 274.253906 158.804688 273.992188 158.851562 273.730469 158.851562 Z M 306.691406 143.9375 C 305.921875 143.9375 305.179688 143.519531 304.800781 142.789062 C 304.261719 141.742188 304.671875 140.460938 305.714844 139.921875 C 311.082031 137.148438 316.375 134.226562 321.4375 131.234375 C 322.453125 130.632812 323.753906 130.972656 324.351562 131.980469 C 324.949219 132.992188 324.613281 134.296875 323.601562 134.894531 C 318.46875 137.925781 313.105469 140.890625 307.664062 143.699219 C 307.355469 143.863281 307.019531 143.9375 306.691406 143.9375 Z M 337.808594 125.523438 C 337.125 125.523438 336.453125 125.195312 336.042969 124.589844 C 335.386719 123.617188 335.640625 122.292969 336.613281 121.636719 C 341.609375 118.253906 346.492188 114.707031 351.125 111.09375 C 352.050781 110.371094 353.386719 110.539062 354.109375 111.464844 C 354.832031 112.394531 354.667969 113.730469 353.742188 114.453125 C 349.035156 118.121094 344.074219 121.722656 339 125.15625 C 338.632812 125.40625 338.21875 125.523438 337.808594 125.523438 Z M 366.28125 103.292969 C 365.699219 103.292969 365.121094 103.054688 364.699219 102.589844 C 363.914062 101.71875 363.984375 100.371094 364.855469 99.585938 C 369.316406 95.5625 373.628906 91.359375 377.675781 87.09375 C 378.484375 86.242188 379.828125 86.207031 380.683594 87.015625 C 381.535156 87.824219 381.570312 89.171875 380.761719 90.023438 C 376.640625 94.367188 372.246094 98.644531 367.707031 102.746094 C 367.296875 103.109375 366.789062 103.292969 366.28125 103.292969 Z M 391.105469 77.09375 C 390.636719 77.09375 390.164062 76.941406 389.773438 76.625 C 388.859375 75.890625 388.714844 74.550781 389.449219 73.632812 C 393.191406 68.980469 396.757812 64.144531 400.046875 59.246094 C 400.703125 58.273438 402.023438 58.015625 403 58.667969 C 403.972656 59.324219 404.234375 60.648438 403.578125 61.621094 C 400.21875 66.617188 396.578125 71.554688 392.761719 76.300781 C 392.34375 76.824219 391.726562 77.09375 391.105469 77.09375 Z M 411.214844 47.164062 C 410.867188 47.164062 410.515625 47.078125 410.191406 46.898438 C 409.160156 46.328125 408.789062 45.035156 409.355469 44.007812 C 412.21875 38.820312 414.886719 33.441406 417.285156 28.011719 C 417.761719 26.9375 419.015625 26.453125 420.089844 26.925781 C 421.164062 27.402344 421.648438 28.65625 421.171875 29.730469 C 418.722656 35.273438 416 40.765625 413.078125 46.0625 C 412.691406 46.765625 411.964844 47.164062 411.214844 47.164062 Z M 425.800781 14.195312 C 425.574219 14.195312 425.34375 14.160156 425.113281 14.082031 C 424.003906 13.699219 423.410156 12.492188 423.789062 11.378906 C 424.871094 8.226562 425.890625 4.996094 426.820312 1.777344 C 427.148438 0.652344 428.328125 0 429.453125 0.328125 C 430.582031 0.65625 431.230469 1.835938 430.90625 2.960938 C 429.953125 6.246094 428.914062 9.539062 427.8125 12.757812 C 427.511719 13.640625 426.6875 14.195312 425.800781 14.195312 Z M 425.800781 14.195312 "/><path style=" stroke:none;fill-rule:nonzero;fill:#000000;fill-opacity:1;" d="M 314.765625 174.914062 C 313.957031 174.914062 313.1875 174.457031 312.828125 173.671875 C 312.339844 172.605469 312.808594 171.34375 313.878906 170.855469 C 335.867188 160.785156 354.351562 149.84375 370.378906 137.394531 C 375.226562 133.632812 379.859375 129.703125 384.152344 125.722656 C 385.015625 124.921875 386.359375 124.972656 387.160156 125.835938 C 387.957031 126.695312 387.90625 128.042969 387.046875 128.839844 C 382.660156 132.90625 377.929688 136.914062 372.984375 140.757812 C 356.695312 153.40625 337.941406 164.515625 315.648438 174.722656 C 315.363281 174.855469 315.0625 174.914062 314.765625 174.914062 Z M 314.765625 174.914062 "/></g></svg>